<?xml version="1.0" encoding="UTF-8"?>
<svg width="361px" height="15px" viewBox="0 0 361 15" version="1.1" xmlns="http://www.w3.org/2000/svg" xmlns:xlink="http://www.w3.org/1999/xlink">
    <!-- Generator: Sketch 49.1 (51147) - http://www.bohemiancoding.com/sketch -->
    <title>Group</title>
    <desc>Created with Sketch.</desc>
    <defs></defs>
    <g id="Page-2" stroke="none" stroke-width="1" fill="none" fill-rule="evenodd">
        <g id="Group" fill="#000000">
            <g id="ColeHaan_b1928_LockUp_MesoBlue" transform="translate(225.000000, 0.000000)">
                <path d="M24.5231111,0.175111111 C20.396,0.175111111 17.3128889,3.48844444 17.3128889,7.59555556 C17.3128889,11.704 20.396,15.0164444 24.5231111,15.0164444 C28.6488889,15.0164444 31.7346667,11.704 31.7346667,7.59555556 C31.7346667,3.48844444 28.6488889,0.175111111 24.5231111,0.175111111 Z M24.5231111,12.8062222 C21.6884444,12.8062222 19.6871111,10.5124444 19.6871111,7.59555556 C19.6871111,4.68 21.6884444,2.38622222 24.5231111,2.38622222 C27.3577778,2.38622222 29.3586667,4.68 29.3586667,7.59555556 C29.3586667,10.5124444 27.3577778,12.8062222 24.5231111,12.8062222 Z M39.2928889,0.301777778 L36.9573333,0.301777778 L36.9573333,14.892 L45.6866667,14.892 L45.6866667,12.6808889 L39.2928889,12.6808889 L39.2928889,0.301777778 Z M53.7675556,8.63733333 L57.0822222,8.63733333 L57.0822222,6.42977778 L53.7675556,6.42977778 L53.7675556,2.50933333 L60.584,2.50933333 L60.584,0.301777778 L51.4337778,0.301777778 L51.4337778,14.892 L60.7057778,14.892 L60.7057778,12.6808889 L53.7675556,12.6808889 L53.7675556,8.63733333 Z M82.5648889,6.42977778 L76.5377778,6.42977778 L76.5377778,0.301777778 L74.2022222,0.301777778 L74.2022222,14.892 L76.5377778,14.892 L76.5377778,8.63733333 L82.5648889,8.63733333 L82.5648889,14.892 L84.9013333,14.892 L84.9013333,0.301777778 L82.5648889,0.301777778 L82.5648889,6.42977778 Z M133.665778,0.301777778 L133.665778,10.5746667 L127.896889,0.301777778 L125.311556,0.301777778 L125.311556,14.892 L127.645333,14.892 L127.645333,4.84444444 L133.416,14.892 L136,14.892 L136,0.301777778 L133.665778,0.301777778 Z M7.21155556,12.8062222 C4.37688889,12.8062222 2.37466667,10.5124444 2.37466667,7.59555556 C2.37466667,4.68 4.37688889,2.38622222 7.21155556,2.38622222 C8.98311111,2.38622222 10.1337778,3.16488889 11.0808889,4.35866667 L12.7537778,2.84222222 C11.4426667,1.23822222 9.56577778,0.175111111 7.21155556,0.175111111 C3.084,0.175111111 0,3.48844444 0,7.59555556 C0,11.704 3.084,15.0164444 7.21155556,15.0164444 C9.83955556,15.0164444 12.0404444,13.6671111 13.2951111,11.6324444 L11.5182222,10.2617778 C10.7573333,11.7364444 9.20711111,12.8062222 7.21155556,12.8062222 Z M95.8368889,0.301777778 L90.4386667,14.892 L92.8795556,14.892 L93.9751111,11.8457778 L100.034222,11.8457778 L101.131111,14.892 L103.569333,14.892 L98.1724444,0.301777778 L95.8368889,0.301777778 Z M94.7671111,9.64355556 L97.0035556,3.428 L99.2404444,9.64355556 L94.7671111,9.64355556 Z M112.395556,0.301777778 L106.997333,14.892 L109.437778,14.892 L110.535111,11.8457778 L116.592889,11.8457778 L117.691111,14.892 L120.126667,14.892 L114.731111,0.301777778 L112.395556,0.301777778 Z M111.325778,9.64355556 L113.561333,3.428 L115.800889,9.64355556 L111.325778,9.64355556 Z" id="Fill-1"></path>
            </g>
            <path d="M2.41304348,6.0326087 L6.91304348,6.0326087 L6.91304348,7.89130435 L2.41304348,7.89130435 L2.41304348,14.3478261 L0.456521739,14.3478261 L0.456521739,0.652173913 L8.2826087,0.652173913 L8.2826087,2.51086957 L2.41304348,2.51086957 L2.41304348,6.0326087 Z M17.2173913,14.5434783 C15.5347826,14.5434783 14.0086957,13.8586957 12.9717391,12.7434783 C12.0913043,11.7847826 11.5434783,10.5130435 11.5434783,8.67391304 L11.5434783,0.652173913 L13.5,0.652173913 L13.5,8.77173913 C13.5,10.0630435 13.8130435,10.8652174 14.3608696,11.4717391 C15.0456522,12.2347826 16.0630435,12.6847826 17.2173913,12.6847826 C18.3717391,12.6847826 19.3891304,12.2347826 20.073913,11.4717391 C20.6217391,10.8652174 20.9347826,10.0630435 20.9347826,8.77173913 L20.9347826,0.652173913 L22.8913043,0.652173913 L22.8913043,8.67391304 C22.8913043,10.5130435 22.3434783,11.7847826 21.4630435,12.7434783 C20.426087,13.8586957 18.9,14.5434783 17.2173913,14.5434783 Z M31.0434783,7.89130435 L29.4782609,7.89130435 L29.4782609,14.3478261 L27.5217391,14.3478261 L27.5217391,0.652173913 L32.3152174,0.652173913 C33.5673913,0.652173913 34.35,0.945652174 34.976087,1.45434783 C35.7978261,2.11956522 36.326087,3.13695652 36.326087,4.27173913 C36.326087,5.40652174 35.7978261,6.42391304 34.976087,7.08913043 C34.5456522,7.44130435 34.0565217,7.69565217 33.3717391,7.81304348 L38.2826087,14.3478261 L35.9152174,14.3478261 L31.0434783,7.89130435 Z M29.4782609,6.0326087 L32.2173913,6.0326087 C33.0978261,6.0326087 33.5478261,5.83695652 33.8608696,5.52391304 C34.173913,5.21086957 34.3695652,4.76086957 34.3695652,4.27173913 C34.3695652,3.7826087 34.173913,3.3326087 33.8608696,3.01956522 C33.5478261,2.70652174 33.0978261,2.51086957 32.2173913,2.51086957 L29.4782609,2.51086957 L29.4782609,6.0326087 Z M39.1956522,2.51086957 L39.1956522,0.652173913 L48.5869565,0.652173913 L48.5869565,2.51086957 L44.8695652,2.51086957 L44.8695652,14.3478261 L42.9130435,14.3478261 L42.9130435,2.51086957 L39.1956522,2.51086957 Z M61.5326087,14.3478261 L61.5326087,7.89130435 L53.9021739,7.89130435 L53.9021739,14.3478261 L51.9456522,14.3478261 L51.9456522,0.652173913 L53.9021739,0.652173913 L53.9021739,6.0326087 L61.5326087,6.0326087 L61.5326087,0.652173913 L63.4891304,0.652173913 L63.4891304,14.3478261 L61.5326087,14.3478261 Z M70.2717391,6.0326087 L74.7717391,6.0326087 L74.7717391,7.89130435 L70.2717391,7.89130435 L70.2717391,12.4891304 L76.3369565,12.4891304 L76.3369565,14.3478261 L68.3152174,14.3478261 L68.3152174,0.652173913 L76.1413043,0.652173913 L76.1413043,2.51086957 L70.2717391,2.51086957 L70.2717391,6.0326087 Z M83.7065217,7.89130435 L82.1413043,7.89130435 L82.1413043,14.3478261 L80.1847826,14.3478261 L80.1847826,0.652173913 L84.9782609,0.652173913 C86.2304348,0.652173913 87.0130435,0.945652174 87.6391304,1.45434783 C88.4608696,2.11956522 88.9891304,3.13695652 88.9891304,4.27173913 C88.9891304,5.40652174 88.4608696,6.42391304 87.6391304,7.08913043 C87.2086957,7.44130435 86.7195652,7.69565217 86.0347826,7.81304348 L90.9456522,14.3478261 L88.5782609,14.3478261 L83.7065217,7.89130435 Z M82.1413043,6.0326087 L84.8804348,6.0326087 C85.7608696,6.0326087 86.2108696,5.83695652 86.523913,5.52391304 C86.8369565,5.21086957 87.0326087,4.76086957 87.0326087,4.27173913 C87.0326087,3.7826087 86.8369565,3.3326087 86.523913,3.01956522 C86.2108696,2.70652174 85.7608696,2.51086957 84.8804348,2.51086957 L82.1413043,2.51086957 L82.1413043,6.0326087 Z M105.358696,5.1326087 L101.347826,11.4130435 L99.9782609,11.4130435 L95.9673913,5.1326087 L95.9673913,14.3478261 L94.0108696,14.3478261 L94.0108696,0.652173913 L95.3804348,0.652173913 L100.663043,9.00652174 L105.945652,0.652173913 L107.315217,0.652173913 L107.315217,14.3478261 L105.358696,14.3478261 L105.358696,5.1326087 Z M111.065217,7.5 C111.065217,3.50869565 114.03913,0.456521739 117.913043,0.456521739 C121.786957,0.456521739 124.76087,3.50869565 124.76087,7.5 C124.76087,11.4913043 121.786957,14.5434783 117.913043,14.5434783 C114.03913,14.5434783 111.065217,11.4913043 111.065217,7.5 Z M113.021739,7.5 C113.021739,10.473913 115.115217,12.6847826 117.913043,12.6847826 C120.71087,12.6847826 122.804348,10.473913 122.804348,7.5 C122.804348,4.54565217 120.71087,2.31521739 117.913043,2.31521739 C115.115217,2.31521739 113.021739,4.54565217 113.021739,7.5 Z M132.032609,7.89130435 L130.467391,7.89130435 L130.467391,14.3478261 L128.51087,14.3478261 L128.51087,0.652173913 L133.304348,0.652173913 C134.556522,0.652173913 135.33913,0.945652174 135.965217,1.45434783 C136.786957,2.11956522 137.315217,3.13695652 137.315217,4.27173913 C137.315217,5.40652174 136.786957,6.42391304 135.965217,7.08913043 C135.534783,7.44130435 135.045652,7.69565217 134.36087,7.81304348 L139.271739,14.3478261 L136.904348,14.3478261 L132.032609,7.89130435 Z M130.467391,6.0326087 L133.206522,6.0326087 C134.086957,6.0326087 134.536957,5.83695652 134.85,5.52391304 C135.163043,5.21086957 135.358696,4.76086957 135.358696,4.27173913 C135.358696,3.7826087 135.163043,3.3326087 134.85,3.01956522 C134.536957,2.70652174 134.086957,2.51086957 133.206522,2.51086957 L130.467391,2.51086957 L130.467391,6.0326087 Z M144.293478,6.0326087 L148.793478,6.0326087 L148.793478,7.89130435 L144.293478,7.89130435 L144.293478,12.4891304 L150.358696,12.4891304 L150.358696,14.3478261 L142.336957,14.3478261 L142.336957,0.652173913 L150.163043,0.652173913 L150.163043,2.51086957 L144.293478,2.51086957 L144.293478,6.0326087 Z" id="FURTHERMORE"></path>
            <polygon id="X" points="188.76413 14.3478261 186.455435 14.3478261 191.327174 6.85434783 187.238043 0.652173913 189.644565 0.652173913 192.598913 5.21086957 195.572826 0.652173913 197.979348 0.652173913 193.870652 6.85434783 198.761957 14.3478261 196.453261 14.3478261 192.598913 8.49782609"></polygon>
        </g>
    </g>
</svg>